<?xml version="1.0" encoding="UTF-8" standalone="no"?>
<svg
   height="48"
   viewBox="0 -960 960 960"
   width="48"
   version="1.1"
   id="svg1147"
   xmlns="http://www.w3.org/2000/svg"
   xmlns:svg="http://www.w3.org/2000/svg">
  <defs
     id="defs1151" />
  <path
     d="m 480.08,-410 q 38.282,0 64.101,-25.779 Q 570,-461.558 570,-500.093 570,-538.628 543.864,-564.314 517.728,-590 479.92,-590 q -38.282,0 -63.601,26.042 -25.319,26.042 -25.319,64.325 0,38.345 25.398,63.989 Q 441.797,-410 480.08,-410 Z M 311,-231 h 339 v -32 q 0,-26.125 -15,-49.062 Q 620,-335 596,-347 q -29,-11 -57.324,-17 -28.323,-6 -58.676,-6 -30.353,0 -58.676,6 -28.324,6 -55.324,17 -26,12 -40.5,34.938 Q 311,-289.125 311,-263 Z M 731,-59 H 229 Q 193.225,-59 165.612,-85.912 138,-112.825 138,-150 v -660 q 0,-37.588 27.612,-64.794 Q 193.225,-902 229,-902 h 342 l 252,252 v 500 q 0,37.175 -27.906,64.088 Q 767.188,-59 731,-59 Z m 0,-91 V -610 L 528.808,-810 H 229 v 660 z m -502,0 v -660 z"
     id="path1145" />
  <path
     style="fill:#ff7aad;stroke-width:4.0678"
     d="m 215.59322,-62.7072 c -35.40214,-7.3529 -65.77374,-36.54586 -72.9801,-70.14794 -6.15747,-28.71128 -5.91823,-666.60524 0.26094,-695.7582 3.71582,-17.53102 8.46313,-25.4606 25.42373,-42.466 13.46437,-13.49994 26.62084,-22.50141 37.12593,-25.40104 10.6838,-2.94896 75.64548,-4.49899 189.17676,-4.51388 l 172.9056,-0.0226 127.0944,127.14248 127.09444,127.14248 -0.024,252.17954 c -0.0163,165.23338 -1.5106,257.53814 -4.33846,267.72172 -5.32898,19.19068 -28.26492,45.17364 -50.27662,56.95582 -16.46632,8.81386 -17.8442,8.86108 -276.88764,9.49134 -143.18644,0.3482 -266.74576,-0.6974 -274.57626,-2.32364 z m 516.61016,-317.63776 v -231.87042 l -100.67796,-99.50982 -100.67796,-99.5098 -151.52542,-0.14522 -151.52542,-0.1452 V -480 -148.47458 H 480 732.20338 Z"
     id="path1153" />
  <path
     style="fill:#ff7aad;stroke-width:4.0678"
     d="m 448.28126,-417.14742 c -58.36082,-23.41952 -72.8054,-103.20882 -26.6199,-147.04358 46.06266,-43.71816 123.62342,-22.23732 141.92146,39.3059 16.86486,56.7228 -24.59976,112.41012 -83.20568,111.7459 -12.5125,-0.142 -26.95566,-1.9456 -32.09588,-4.00822 z"
     id="path1155" />
  <path
     style="fill:#ff7aad;stroke-width:4.0678"
     d="m 313.30968,-257.28814 c 0.2178,-57.02358 35.14282,-89.29714 113.66594,-105.03654 59.20822,-11.86788 143.25512,0.122 180.52976,25.754 24.15502,16.6102 39.1895,46.21034 39.2361,77.24864 l 0.038,25.42374 H 480 313.22034 Z"
     id="path1157" />
</svg>
